<mxfile host="app.diagrams.net" modified="2023-08-17T04:55:11.629Z" agent="Mozilla/5.0 (Macintosh; Intel Mac OS X 10_15_7) AppleWebKit/537.36 (KHTML, like Gecko) Chrome/115.0.0.0 Safari/537.36" etag="GOvWmJe_-9ugZu4_ONf3" version="21.6.8" type="github">
  <diagram name="페이지-1" id="y-S1PTLIUPCFTGaCikYn">
    <mxGraphModel dx="1554" dy="1855" grid="1" gridSize="10" guides="1" tooltips="1" connect="1" arrows="1" fold="1" page="1" pageScale="1" pageWidth="827" pageHeight="1169" background="#DBDBDB" math="0" shadow="0">
      <root>
        <mxCell id="0" />
        <mxCell id="1" parent="0" />
        <mxCell id="qrLeTjBu-Ae9pymuF5rT-1" value="셀렉스테이" style="rounded=0;whiteSpace=wrap;html=1;verticalAlign=top;" parent="1" vertex="1">
          <mxGeometry x="-580" y="-350" width="840" height="1430" as="geometry" />
        </mxCell>
        <mxCell id="qrLeTjBu-Ae9pymuF5rT-2" value="호텔" style="swimlane;fontStyle=0;childLayout=stackLayout;horizontal=1;startSize=26;horizontalStack=0;resizeParent=1;resizeParentMax=0;resizeLast=0;collapsible=1;marginBottom=0;align=center;fontSize=14;flipH=1;rounded=0;swimlaneFillColor=default;" parent="1" vertex="1">
          <mxGeometry x="470" y="350" width="155" height="116" as="geometry" />
        </mxCell>
        <mxCell id="qrLeTjBu-Ae9pymuF5rT-3" value="id" style="text;strokeColor=none;fillColor=none;spacingLeft=4;spacingRight=4;overflow=hidden;rotatable=0;points=[[0,0.5],[1,0.5]];portConstraint=eastwest;fontSize=12;" parent="qrLeTjBu-Ae9pymuF5rT-2" vertex="1">
          <mxGeometry y="26" width="155" height="30" as="geometry" />
        </mxCell>
        <mxCell id="qrLeTjBu-Ae9pymuF5rT-4" style="text;strokeColor=none;fillColor=none;spacingLeft=4;spacingRight=4;overflow=hidden;rotatable=0;points=[[0,0.5],[1,0.5]];portConstraint=eastwest;fontSize=12;" parent="qrLeTjBu-Ae9pymuF5rT-2" vertex="1">
          <mxGeometry y="56" width="155" height="30" as="geometry" />
        </mxCell>
        <mxCell id="qrLeTjBu-Ae9pymuF5rT-5" style="text;strokeColor=none;fillColor=none;spacingLeft=4;spacingRight=4;overflow=hidden;rotatable=0;points=[[0,0.5],[1,0.5]];portConstraint=eastwest;fontSize=12;" parent="qrLeTjBu-Ae9pymuF5rT-2" vertex="1">
          <mxGeometry y="86" width="155" height="30" as="geometry" />
        </mxCell>
        <mxCell id="qrLeTjBu-Ae9pymuF5rT-15" value="호텔 구성&#xa;(classifications)" style="swimlane;fontStyle=0;childLayout=stackLayout;horizontal=1;startSize=26;horizontalStack=0;resizeParent=1;resizeParentMax=0;resizeLast=0;collapsible=1;marginBottom=0;align=center;fontSize=14;" parent="1" vertex="1">
          <mxGeometry x="-280" y="885" width="230" height="176" as="geometry">
            <mxRectangle x="-110" y="350" width="200" height="30" as="alternateBounds" />
          </mxGeometry>
        </mxCell>
        <mxCell id="qrLeTjBu-Ae9pymuF5rT-16" value="id" style="text;strokeColor=none;fillColor=none;spacingLeft=4;spacingRight=4;overflow=hidden;rotatable=0;points=[[0,0.5],[1,0.5]];portConstraint=eastwest;fontSize=12;" parent="qrLeTjBu-Ae9pymuF5rT-15" vertex="1">
          <mxGeometry y="26" width="230" height="30" as="geometry" />
        </mxCell>
        <mxCell id="qrLeTjBu-Ae9pymuF5rT-17" value="title" style="text;strokeColor=none;fillColor=none;spacingLeft=4;spacingRight=4;overflow=hidden;rotatable=0;points=[[0,0.5],[1,0.5]];portConstraint=eastwest;fontSize=12;" parent="qrLeTjBu-Ae9pymuF5rT-15" vertex="1">
          <mxGeometry y="56" width="230" height="30" as="geometry" />
        </mxCell>
        <mxCell id="qrLeTjBu-Ae9pymuF5rT-18" value="title_en" style="text;strokeColor=none;fillColor=none;spacingLeft=4;spacingRight=4;overflow=hidden;rotatable=0;points=[[0,0.5],[1,0.5]];portConstraint=eastwest;fontSize=12;" parent="qrLeTjBu-Ae9pymuF5rT-15" vertex="1">
          <mxGeometry y="86" width="230" height="30" as="geometry" />
        </mxCell>
        <mxCell id="qrLeTjBu-Ae9pymuF5rT-19" value="description" style="text;strokeColor=none;fillColor=none;spacingLeft=4;spacingRight=4;overflow=hidden;rotatable=0;points=[[0,0.5],[1,0.5]];portConstraint=eastwest;fontSize=12;" parent="qrLeTjBu-Ae9pymuF5rT-15" vertex="1">
          <mxGeometry y="116" width="230" height="30" as="geometry" />
        </mxCell>
        <mxCell id="qrLeTjBu-Ae9pymuF5rT-20" value="order" style="text;strokeColor=none;fillColor=none;spacingLeft=4;spacingRight=4;overflow=hidden;rotatable=0;points=[[0,0.5],[1,0.5]];portConstraint=eastwest;fontSize=12;" parent="qrLeTjBu-Ae9pymuF5rT-15" vertex="1">
          <mxGeometry y="146" width="230" height="30" as="geometry" />
        </mxCell>
        <mxCell id="qrLeTjBu-Ae9pymuF5rT-21" value="구성 호텔&#xa;(classification_hotels)" style="swimlane;fontStyle=0;childLayout=stackLayout;horizontal=1;startSize=26;horizontalStack=0;resizeParent=1;resizeParentMax=0;resizeLast=0;collapsible=1;marginBottom=0;align=center;fontSize=14;" parent="1" vertex="1">
          <mxGeometry x="5" y="900" width="230" height="146" as="geometry">
            <mxRectangle x="-110" y="350" width="200" height="30" as="alternateBounds" />
          </mxGeometry>
        </mxCell>
        <mxCell id="qrLeTjBu-Ae9pymuF5rT-22" value="id" style="text;strokeColor=none;fillColor=none;spacingLeft=4;spacingRight=4;overflow=hidden;rotatable=0;points=[[0,0.5],[1,0.5]];portConstraint=eastwest;fontSize=12;" parent="qrLeTjBu-Ae9pymuF5rT-21" vertex="1">
          <mxGeometry y="26" width="230" height="30" as="geometry" />
        </mxCell>
        <mxCell id="qrLeTjBu-Ae9pymuF5rT-23" value="classification_id" style="text;strokeColor=none;fillColor=none;spacingLeft=4;spacingRight=4;overflow=hidden;rotatable=0;points=[[0,0.5],[1,0.5]];portConstraint=eastwest;fontSize=12;" parent="qrLeTjBu-Ae9pymuF5rT-21" vertex="1">
          <mxGeometry y="56" width="230" height="30" as="geometry" />
        </mxCell>
        <mxCell id="qrLeTjBu-Ae9pymuF5rT-24" value="hotel_id" style="text;strokeColor=none;fillColor=none;spacingLeft=4;spacingRight=4;overflow=hidden;rotatable=0;points=[[0,0.5],[1,0.5]];portConstraint=eastwest;fontSize=12;" parent="qrLeTjBu-Ae9pymuF5rT-21" vertex="1">
          <mxGeometry y="86" width="230" height="30" as="geometry" />
        </mxCell>
        <mxCell id="qrLeTjBu-Ae9pymuF5rT-25" value="order" style="text;strokeColor=none;fillColor=none;spacingLeft=4;spacingRight=4;overflow=hidden;rotatable=0;points=[[0,0.5],[1,0.5]];portConstraint=eastwest;fontSize=12;" parent="qrLeTjBu-Ae9pymuF5rT-21" vertex="1">
          <mxGeometry y="116" width="230" height="30" as="geometry" />
        </mxCell>
        <mxCell id="qrLeTjBu-Ae9pymuF5rT-26" style="edgeStyle=orthogonalEdgeStyle;rounded=0;orthogonalLoop=1;jettySize=auto;html=1;entryX=1;entryY=0.5;entryDx=0;entryDy=0;exitX=0;exitY=0.5;exitDx=0;exitDy=0;" parent="1" source="qrLeTjBu-Ae9pymuF5rT-23" target="qrLeTjBu-Ae9pymuF5rT-16" edge="1">
          <mxGeometry relative="1" as="geometry" />
        </mxCell>
        <mxCell id="qrLeTjBu-Ae9pymuF5rT-27" style="edgeStyle=orthogonalEdgeStyle;rounded=0;orthogonalLoop=1;jettySize=auto;html=1;exitX=1;exitY=0.5;exitDx=0;exitDy=0;" parent="1" source="qrLeTjBu-Ae9pymuF5rT-24" target="qrLeTjBu-Ae9pymuF5rT-3" edge="1">
          <mxGeometry relative="1" as="geometry">
            <Array as="points">
              <mxPoint x="235" y="1000" />
              <mxPoint x="360" y="1000" />
              <mxPoint x="360" y="391" />
            </Array>
          </mxGeometry>
        </mxCell>
        <mxCell id="qrLeTjBu-Ae9pymuF5rT-28" value="" style="edgeStyle=orthogonalEdgeStyle;rounded=0;orthogonalLoop=1;jettySize=auto;html=1;exitX=0;exitY=0;exitDx=0;exitDy=0;" parent="1" source="qrLeTjBu-Ae9pymuF5rT-8" target="qrLeTjBu-Ae9pymuF5rT-3" edge="1">
          <mxGeometry relative="1" as="geometry">
            <Array as="points">
              <mxPoint x="710" y="390" />
            </Array>
          </mxGeometry>
        </mxCell>
        <mxCell id="qrLeTjBu-Ae9pymuF5rT-29" value="추가 옵션&lt;br&gt;(additional options)" style="swimlane;fontStyle=0;childLayout=stackLayout;horizontal=1;startSize=30;horizontalStack=0;resizeParent=1;resizeParentMax=0;resizeLast=0;collapsible=1;marginBottom=0;whiteSpace=wrap;html=1;" parent="1" vertex="1">
          <mxGeometry x="-200" y="-50" width="200" height="150" as="geometry" />
        </mxCell>
        <mxCell id="qrLeTjBu-Ae9pymuF5rT-30" value="id" style="text;strokeColor=none;fillColor=none;align=left;verticalAlign=middle;spacingLeft=4;spacingRight=4;overflow=hidden;points=[[0,0.5],[1,0.5]];portConstraint=eastwest;rotatable=0;whiteSpace=wrap;html=1;" parent="qrLeTjBu-Ae9pymuF5rT-29" vertex="1">
          <mxGeometry y="30" width="200" height="30" as="geometry" />
        </mxCell>
        <mxCell id="qrLeTjBu-Ae9pymuF5rT-31" value="stock_id" style="text;strokeColor=none;fillColor=none;align=left;verticalAlign=middle;spacingLeft=4;spacingRight=4;overflow=hidden;points=[[0,0.5],[1,0.5]];portConstraint=eastwest;rotatable=0;whiteSpace=wrap;html=1;" parent="qrLeTjBu-Ae9pymuF5rT-29" vertex="1">
          <mxGeometry y="60" width="200" height="30" as="geometry" />
        </mxCell>
        <mxCell id="qrLeTjBu-Ae9pymuF5rT-32" value="name : 조식, 할인, 주차 등" style="text;strokeColor=none;fillColor=none;align=left;verticalAlign=middle;spacingLeft=4;spacingRight=4;overflow=hidden;points=[[0,0.5],[1,0.5]];portConstraint=eastwest;rotatable=0;whiteSpace=wrap;html=1;" parent="qrLeTjBu-Ae9pymuF5rT-29" vertex="1">
          <mxGeometry y="90" width="200" height="30" as="geometry" />
        </mxCell>
        <mxCell id="qrLeTjBu-Ae9pymuF5rT-56" value="order" style="text;strokeColor=none;fillColor=none;align=left;verticalAlign=middle;spacingLeft=4;spacingRight=4;overflow=hidden;points=[[0,0.5],[1,0.5]];portConstraint=eastwest;rotatable=0;whiteSpace=wrap;html=1;" parent="qrLeTjBu-Ae9pymuF5rT-29" vertex="1">
          <mxGeometry y="120" width="200" height="30" as="geometry" />
        </mxCell>
        <mxCell id="qrLeTjBu-Ae9pymuF5rT-33" value="상품&lt;br&gt;(voucher)" style="swimlane;fontStyle=0;childLayout=stackLayout;horizontal=1;startSize=30;horizontalStack=0;resizeParent=1;resizeParentMax=0;resizeLast=0;collapsible=1;marginBottom=0;whiteSpace=wrap;html=1;" parent="1" vertex="1">
          <mxGeometry x="60" y="402" width="180" height="120" as="geometry" />
        </mxCell>
        <mxCell id="qrLeTjBu-Ae9pymuF5rT-34" value="id" style="text;strokeColor=none;fillColor=none;align=left;verticalAlign=middle;spacingLeft=4;spacingRight=4;overflow=hidden;points=[[0,0.5],[1,0.5]];portConstraint=eastwest;rotatable=0;whiteSpace=wrap;html=1;" parent="qrLeTjBu-Ae9pymuF5rT-33" vertex="1">
          <mxGeometry y="30" width="180" height="30" as="geometry" />
        </mxCell>
        <mxCell id="qrLeTjBu-Ae9pymuF5rT-35" value="hotel_id" style="text;strokeColor=none;fillColor=none;align=left;verticalAlign=middle;spacingLeft=4;spacingRight=4;overflow=hidden;points=[[0,0.5],[1,0.5]];portConstraint=eastwest;rotatable=0;whiteSpace=wrap;html=1;" parent="qrLeTjBu-Ae9pymuF5rT-33" vertex="1">
          <mxGeometry y="60" width="180" height="30" as="geometry" />
        </mxCell>
        <mxCell id="qrLeTjBu-Ae9pymuF5rT-55" value="order" style="text;strokeColor=none;fillColor=none;align=left;verticalAlign=middle;spacingLeft=4;spacingRight=4;overflow=hidden;points=[[0,0.5],[1,0.5]];portConstraint=eastwest;rotatable=0;whiteSpace=wrap;html=1;" parent="qrLeTjBu-Ae9pymuF5rT-33" vertex="1">
          <mxGeometry y="90" width="180" height="30" as="geometry" />
        </mxCell>
        <mxCell id="qrLeTjBu-Ae9pymuF5rT-37" style="edgeStyle=orthogonalEdgeStyle;rounded=0;orthogonalLoop=1;jettySize=auto;html=1;entryX=0;entryY=0.5;entryDx=0;entryDy=0;exitX=1.015;exitY=0.329;exitDx=0;exitDy=0;exitPerimeter=0;" parent="1" source="qrLeTjBu-Ae9pymuF5rT-35" target="qrLeTjBu-Ae9pymuF5rT-3" edge="1">
          <mxGeometry relative="1" as="geometry">
            <Array as="points">
              <mxPoint x="243" y="470" />
              <mxPoint x="350" y="470" />
              <mxPoint x="350" y="391" />
            </Array>
          </mxGeometry>
        </mxCell>
        <mxCell id="qrLeTjBu-Ae9pymuF5rT-38" style="edgeStyle=orthogonalEdgeStyle;rounded=0;orthogonalLoop=1;jettySize=auto;html=1;entryX=0;entryY=0.5;entryDx=0;entryDy=0;" parent="1" source="qrLeTjBu-Ae9pymuF5rT-39" target="qrLeTjBu-Ae9pymuF5rT-30" edge="1">
          <mxGeometry relative="1" as="geometry" />
        </mxCell>
        <mxCell id="qrLeTjBu-Ae9pymuF5rT-39" value="옵션 상세&lt;br&gt;()" style="swimlane;fontStyle=0;childLayout=stackLayout;horizontal=1;startSize=30;horizontalStack=0;resizeParent=1;resizeParentMax=0;resizeLast=0;collapsible=1;marginBottom=0;whiteSpace=wrap;html=1;" parent="1" vertex="1">
          <mxGeometry x="-500" y="-50" width="220" height="210" as="geometry" />
        </mxCell>
        <mxCell id="qrLeTjBu-Ae9pymuF5rT-40" value="additional_option_id" style="text;strokeColor=none;fillColor=none;align=left;verticalAlign=middle;spacingLeft=4;spacingRight=4;overflow=hidden;points=[[0,0.5],[1,0.5]];portConstraint=eastwest;rotatable=0;whiteSpace=wrap;html=1;" parent="qrLeTjBu-Ae9pymuF5rT-39" vertex="1">
          <mxGeometry y="30" width="220" height="30" as="geometry" />
        </mxCell>
        <mxCell id="qrLeTjBu-Ae9pymuF5rT-41" value="min_use (최소 선택 수)" style="text;strokeColor=none;fillColor=none;align=left;verticalAlign=middle;spacingLeft=4;spacingRight=4;overflow=hidden;points=[[0,0.5],[1,0.5]];portConstraint=eastwest;rotatable=0;whiteSpace=wrap;html=1;" parent="qrLeTjBu-Ae9pymuF5rT-39" vertex="1">
          <mxGeometry y="60" width="220" height="30" as="geometry" />
        </mxCell>
        <mxCell id="qrLeTjBu-Ae9pymuF5rT-42" value="max_use (최대 선택 수 )" style="text;strokeColor=none;fillColor=none;align=left;verticalAlign=middle;spacingLeft=4;spacingRight=4;overflow=hidden;points=[[0,0.5],[1,0.5]];portConstraint=eastwest;rotatable=0;whiteSpace=wrap;html=1;" parent="qrLeTjBu-Ae9pymuF5rT-39" vertex="1">
          <mxGeometry y="90" width="220" height="30" as="geometry" />
        </mxCell>
        <mxCell id="qrLeTjBu-Ae9pymuF5rT-43" value="discount (비용 : 원, %)" style="text;strokeColor=none;fillColor=none;align=left;verticalAlign=middle;spacingLeft=4;spacingRight=4;overflow=hidden;points=[[0,0.5],[1,0.5]];portConstraint=eastwest;rotatable=0;whiteSpace=wrap;html=1;" parent="qrLeTjBu-Ae9pymuF5rT-39" vertex="1">
          <mxGeometry y="120" width="220" height="30" as="geometry" />
        </mxCell>
        <mxCell id="3JElpp8tTer-i9fu_fp9-2" value="defalut 디폴트 값" style="text;strokeColor=none;fillColor=none;align=left;verticalAlign=middle;spacingLeft=4;spacingRight=4;overflow=hidden;points=[[0,0.5],[1,0.5]];portConstraint=eastwest;rotatable=0;whiteSpace=wrap;html=1;" parent="qrLeTjBu-Ae9pymuF5rT-39" vertex="1">
          <mxGeometry y="150" width="220" height="30" as="geometry" />
        </mxCell>
        <mxCell id="_AvtWLBcrE-bu84miZi--1" value="discription 설명" style="text;strokeColor=none;fillColor=none;align=left;verticalAlign=middle;spacingLeft=4;spacingRight=4;overflow=hidden;points=[[0,0.5],[1,0.5]];portConstraint=eastwest;rotatable=0;whiteSpace=wrap;html=1;" vertex="1" parent="qrLeTjBu-Ae9pymuF5rT-39">
          <mxGeometry y="180" width="220" height="30" as="geometry" />
        </mxCell>
        <mxCell id="qrLeTjBu-Ae9pymuF5rT-47" value="재고&lt;br&gt;(stock)" style="swimlane;fontStyle=0;childLayout=stackLayout;horizontal=1;startSize=30;horizontalStack=0;resizeParent=1;resizeParentMax=0;resizeLast=0;collapsible=1;marginBottom=0;whiteSpace=wrap;html=1;" parent="1" vertex="1">
          <mxGeometry x="85" y="-50" width="170" height="180" as="geometry" />
        </mxCell>
        <mxCell id="qrLeTjBu-Ae9pymuF5rT-48" value="id" style="text;strokeColor=none;fillColor=none;align=left;verticalAlign=middle;spacingLeft=4;spacingRight=4;overflow=hidden;points=[[0,0.5],[1,0.5]];portConstraint=eastwest;rotatable=0;whiteSpace=wrap;html=1;" parent="qrLeTjBu-Ae9pymuF5rT-47" vertex="1">
          <mxGeometry y="30" width="170" height="30" as="geometry" />
        </mxCell>
        <mxCell id="qrLeTjBu-Ae9pymuF5rT-49" value="hotel_id" style="text;strokeColor=none;fillColor=none;align=left;verticalAlign=middle;spacingLeft=4;spacingRight=4;overflow=hidden;points=[[0,0.5],[1,0.5]];portConstraint=eastwest;rotatable=0;whiteSpace=wrap;html=1;" parent="qrLeTjBu-Ae9pymuF5rT-47" vertex="1">
          <mxGeometry y="60" width="170" height="30" as="geometry" />
        </mxCell>
        <mxCell id="qrLeTjBu-Ae9pymuF5rT-50" value="voucher_id" style="text;strokeColor=none;fillColor=none;align=left;verticalAlign=middle;spacingLeft=4;spacingRight=4;overflow=hidden;points=[[0,0.5],[1,0.5]];portConstraint=eastwest;rotatable=0;whiteSpace=wrap;html=1;" parent="qrLeTjBu-Ae9pymuF5rT-47" vertex="1">
          <mxGeometry y="90" width="170" height="30" as="geometry" />
        </mxCell>
        <mxCell id="qrLeTjBu-Ae9pymuF5rT-51" value="재고수" style="text;strokeColor=none;fillColor=none;align=left;verticalAlign=middle;spacingLeft=4;spacingRight=4;overflow=hidden;points=[[0,0.5],[1,0.5]];portConstraint=eastwest;rotatable=0;whiteSpace=wrap;html=1;" parent="qrLeTjBu-Ae9pymuF5rT-47" vertex="1">
          <mxGeometry y="120" width="170" height="30" as="geometry" />
        </mxCell>
        <mxCell id="qrLeTjBu-Ae9pymuF5rT-52" style="text;strokeColor=none;fillColor=none;align=left;verticalAlign=middle;spacingLeft=4;spacingRight=4;overflow=hidden;points=[[0,0.5],[1,0.5]];portConstraint=eastwest;rotatable=0;whiteSpace=wrap;html=1;" parent="qrLeTjBu-Ae9pymuF5rT-47" vertex="1">
          <mxGeometry y="150" width="170" height="30" as="geometry" />
        </mxCell>
        <mxCell id="qrLeTjBu-Ae9pymuF5rT-54" style="edgeStyle=orthogonalEdgeStyle;rounded=0;orthogonalLoop=1;jettySize=auto;html=1;entryX=0;entryY=0.5;entryDx=0;entryDy=0;exitX=1;exitY=0.5;exitDx=0;exitDy=0;" parent="1" source="qrLeTjBu-Ae9pymuF5rT-49" target="qrLeTjBu-Ae9pymuF5rT-3" edge="1">
          <mxGeometry relative="1" as="geometry">
            <Array as="points">
              <mxPoint x="255" y="77" />
              <mxPoint x="370" y="77" />
              <mxPoint x="370" y="390" />
              <mxPoint x="470" y="390" />
            </Array>
          </mxGeometry>
        </mxCell>
        <mxCell id="qrLeTjBu-Ae9pymuF5rT-8" value="정보" style="rounded=0;whiteSpace=wrap;html=1;container=0;align=center;verticalAlign=top;" parent="1" vertex="1">
          <mxGeometry x="760" y="390" width="490" height="350" as="geometry" />
        </mxCell>
        <mxCell id="qrLeTjBu-Ae9pymuF5rT-58" value="" style="group" parent="1" vertex="1" connectable="0">
          <mxGeometry x="782.439024390244" y="424" width="206.83170731707318" height="86" as="geometry" />
        </mxCell>
        <mxCell id="qrLeTjBu-Ae9pymuF5rT-12" value="hotel_id" style="text;strokeColor=none;fillColor=none;spacingLeft=4;spacingRight=4;overflow=hidden;rotatable=0;points=[[0,0.5],[1,0.5]];portConstraint=eastwest;fontSize=12;" parent="qrLeTjBu-Ae9pymuF5rT-58" vertex="1">
          <mxGeometry y="26" width="206.8317073170732" height="30" as="geometry" />
        </mxCell>
        <mxCell id="qrLeTjBu-Ae9pymuF5rT-14" value="호텔 옵션" style="swimlane;fontStyle=0;childLayout=stackLayout;horizontal=1;startSize=26;horizontalStack=0;resizeParent=1;resizeParentMax=0;resizeLast=0;collapsible=1;marginBottom=0;align=center;fontSize=14;flipH=1;container=1;" parent="qrLeTjBu-Ae9pymuF5rT-58" vertex="1">
          <mxGeometry width="206.8317073170732" height="86" as="geometry" />
        </mxCell>
        <mxCell id="qrLeTjBu-Ae9pymuF5rT-59" value="" style="group" parent="1" vertex="1" connectable="0">
          <mxGeometry x="782.439024390244" y="522" width="206.83170731707318" height="86" as="geometry" />
        </mxCell>
        <mxCell id="qrLeTjBu-Ae9pymuF5rT-9" value="룸" style="swimlane;fontStyle=0;childLayout=stackLayout;horizontal=1;startSize=26;horizontalStack=0;resizeParent=1;resizeParentMax=0;resizeLast=0;collapsible=1;marginBottom=0;align=center;fontSize=14;flipH=1;container=0;" parent="qrLeTjBu-Ae9pymuF5rT-59" vertex="1">
          <mxGeometry width="206.8317073170732" height="86" as="geometry" />
        </mxCell>
        <mxCell id="qrLeTjBu-Ae9pymuF5rT-10" value="hotel_id" style="text;strokeColor=none;fillColor=none;spacingLeft=4;spacingRight=4;overflow=hidden;rotatable=0;points=[[0,0.5],[1,0.5]];portConstraint=eastwest;fontSize=12;" parent="qrLeTjBu-Ae9pymuF5rT-59" vertex="1">
          <mxGeometry y="26" width="206.8317073170732" height="30" as="geometry" />
        </mxCell>
        <mxCell id="qrLeTjBu-Ae9pymuF5rT-11" style="text;strokeColor=none;fillColor=none;spacingLeft=4;spacingRight=4;overflow=hidden;rotatable=0;points=[[0,0.5],[1,0.5]];portConstraint=eastwest;fontSize=12;" parent="qrLeTjBu-Ae9pymuF5rT-59" vertex="1">
          <mxGeometry y="56" width="206.8317073170732" height="30" as="geometry" />
        </mxCell>
        <mxCell id="_AvtWLBcrE-bu84miZi--3" style="edgeStyle=orthogonalEdgeStyle;rounded=0;orthogonalLoop=1;jettySize=auto;html=1;" edge="1" parent="1" source="_AvtWLBcrE-bu84miZi--2" target="qrLeTjBu-Ae9pymuF5rT-39">
          <mxGeometry relative="1" as="geometry" />
        </mxCell>
        <mxCell id="_AvtWLBcrE-bu84miZi--2" value="&lt;div style=&quot;&quot;&gt;&lt;span style=&quot;&quot;&gt;옵션의 정의&lt;/span&gt;&lt;/div&gt;&lt;div style=&quot;&quot;&gt;&lt;span style=&quot;&quot;&gt;1. 변동성을 자짐&lt;/span&gt;&lt;/div&gt;&lt;div style=&quot;&quot;&gt;&lt;span style=&quot;&quot;&gt;2. 재고와 상관없이 어떤 룸타임이든 적용 가능해야함&lt;/span&gt;&lt;/div&gt;&lt;div style=&quot;&quot;&gt;3. 미 필수 선택&lt;br&gt;&lt;br&gt;정책&lt;/div&gt;&lt;div style=&quot;&quot;&gt;1. 비용 발생 할 수 있음&lt;/div&gt;&lt;div style=&quot;&quot;&gt;2. 기본 선택 설정 가능&lt;/div&gt;&lt;div style=&quot;&quot;&gt;3. 2개 이상 설정 가능&amp;nbsp;&lt;/div&gt;&lt;div style=&quot;&quot;&gt;&amp;nbsp; &amp;nbsp; - 3개 이상 시 셀렉트 박스&lt;/div&gt;&lt;div style=&quot;&quot;&gt;&amp;nbsp; &amp;nbsp; - 2개 이하 시 버튼 박스&lt;/div&gt;&lt;div style=&quot;&quot;&gt;&lt;br&gt;&lt;/div&gt;&lt;div style=&quot;&quot;&gt;&lt;br&gt;&lt;/div&gt;&lt;div style=&quot;&quot;&gt;룸타입 자체 평일, 주말 구분과 옵션의 평일, 주말 구분은 다른 조건&amp;nbsp;&lt;/div&gt;&lt;div style=&quot;&quot;&gt;1. 룸타입 자체 평일 주말 구분은 재고와 연관 있을때&lt;/div&gt;&lt;div style=&quot;&quot;&gt;2. 옵션상 평일, 주말의 경우 가격 변동 없이 고정 비용&lt;/div&gt;&lt;div style=&quot;&quot;&gt;&lt;br&gt;&lt;/div&gt;" style="text;strokeColor=#666666;fillColor=#f5f5f5;html=1;fontSize=12;fontStyle=0;verticalAlign=top;align=left;labelBackgroundColor=none;labelBorderColor=none;fontColor=#333333;" vertex="1" parent="1">
          <mxGeometry x="-555" y="-338" width="330" height="250" as="geometry" />
        </mxCell>
        <mxCell id="_AvtWLBcrE-bu84miZi--5" value="가격 할인&lt;br&gt;(Discount)" style="swimlane;fontStyle=0;childLayout=stackLayout;horizontal=1;startSize=30;horizontalStack=0;resizeParent=1;resizeParentMax=0;resizeLast=0;collapsible=1;marginBottom=0;whiteSpace=wrap;html=1;" vertex="1" parent="1">
          <mxGeometry x="-200" y="190" width="205" height="240" as="geometry" />
        </mxCell>
        <mxCell id="_AvtWLBcrE-bu84miZi--6" value="id" style="text;strokeColor=none;fillColor=none;align=left;verticalAlign=middle;spacingLeft=4;spacingRight=4;overflow=hidden;points=[[0,0.5],[1,0.5]];portConstraint=eastwest;rotatable=0;whiteSpace=wrap;html=1;" vertex="1" parent="_AvtWLBcrE-bu84miZi--5">
          <mxGeometry y="30" width="205" height="30" as="geometry" />
        </mxCell>
        <mxCell id="_AvtWLBcrE-bu84miZi--7" value="voucher_id" style="text;strokeColor=none;fillColor=none;align=left;verticalAlign=middle;spacingLeft=4;spacingRight=4;overflow=hidden;points=[[0,0.5],[1,0.5]];portConstraint=eastwest;rotatable=0;whiteSpace=wrap;html=1;" vertex="1" parent="_AvtWLBcrE-bu84miZi--5">
          <mxGeometry y="60" width="205" height="30" as="geometry" />
        </mxCell>
        <mxCell id="_AvtWLBcrE-bu84miZi--17" value="&lt;meta charset=&quot;utf-8&quot;&gt;&lt;span style=&quot;color: rgb(0, 0, 0); font-family: Helvetica; font-size: 12px; font-style: normal; font-variant-ligatures: normal; font-variant-caps: normal; font-weight: 400; letter-spacing: normal; orphans: 2; text-align: left; text-indent: 0px; text-transform: none; widows: 2; word-spacing: 0px; -webkit-text-stroke-width: 0px; background-color: rgb(251, 251, 251); text-decoration-thickness: initial; text-decoration-style: initial; text-decoration-color: initial; float: none; display: inline !important;&quot;&gt;min_days (최소 박)&lt;/span&gt;" style="text;strokeColor=none;fillColor=none;align=left;verticalAlign=middle;spacingLeft=4;spacingRight=4;overflow=hidden;points=[[0,0.5],[1,0.5]];portConstraint=eastwest;rotatable=0;whiteSpace=wrap;html=1;" vertex="1" parent="_AvtWLBcrE-bu84miZi--5">
          <mxGeometry y="90" width="205" height="30" as="geometry" />
        </mxCell>
        <mxCell id="_AvtWLBcrE-bu84miZi--21" value="&lt;meta charset=&quot;utf-8&quot;&gt;&lt;span style=&quot;color: rgb(0, 0, 0); font-family: Helvetica; font-size: 12px; font-style: normal; font-variant-ligatures: normal; font-variant-caps: normal; font-weight: 400; letter-spacing: normal; orphans: 2; text-align: left; text-indent: 0px; text-transform: none; widows: 2; word-spacing: 0px; -webkit-text-stroke-width: 0px; background-color: rgb(251, 251, 251); text-decoration-thickness: initial; text-decoration-style: initial; text-decoration-color: initial; float: none; display: inline !important;&quot;&gt;days (몇 박당)&lt;/span&gt;" style="text;strokeColor=none;fillColor=none;align=left;verticalAlign=middle;spacingLeft=4;spacingRight=4;overflow=hidden;points=[[0,0.5],[1,0.5]];portConstraint=eastwest;rotatable=0;whiteSpace=wrap;html=1;" vertex="1" parent="_AvtWLBcrE-bu84miZi--5">
          <mxGeometry y="120" width="205" height="30" as="geometry" />
        </mxCell>
        <mxCell id="_AvtWLBcrE-bu84miZi--22" value="&lt;span style=&quot;color: rgb(0, 0, 0); font-family: Helvetica; font-size: 12px; font-style: normal; font-variant-ligatures: normal; font-variant-caps: normal; font-weight: 400; letter-spacing: normal; orphans: 2; text-align: left; text-indent: 0px; text-transform: none; widows: 2; word-spacing: 0px; -webkit-text-stroke-width: 0px; background-color: rgb(251, 251, 251); text-decoration-thickness: initial; text-decoration-style: initial; text-decoration-color: initial; float: none; display: inline !important;&quot;&gt;discount&lt;/span&gt;" style="text;strokeColor=none;fillColor=none;align=left;verticalAlign=middle;spacingLeft=4;spacingRight=4;overflow=hidden;points=[[0,0.5],[1,0.5]];portConstraint=eastwest;rotatable=0;whiteSpace=wrap;html=1;" vertex="1" parent="_AvtWLBcrE-bu84miZi--5">
          <mxGeometry y="150" width="205" height="30" as="geometry" />
        </mxCell>
        <mxCell id="_AvtWLBcrE-bu84miZi--20" value="max_discount" style="text;strokeColor=none;fillColor=none;align=left;verticalAlign=middle;spacingLeft=4;spacingRight=4;overflow=hidden;points=[[0,0.5],[1,0.5]];portConstraint=eastwest;rotatable=0;whiteSpace=wrap;html=1;" vertex="1" parent="_AvtWLBcrE-bu84miZi--5">
          <mxGeometry y="180" width="205" height="30" as="geometry" />
        </mxCell>
        <mxCell id="_AvtWLBcrE-bu84miZi--19" style="text;strokeColor=none;fillColor=none;align=left;verticalAlign=middle;spacingLeft=4;spacingRight=4;overflow=hidden;points=[[0,0.5],[1,0.5]];portConstraint=eastwest;rotatable=0;whiteSpace=wrap;html=1;" vertex="1" parent="_AvtWLBcrE-bu84miZi--5">
          <mxGeometry y="210" width="205" height="30" as="geometry" />
        </mxCell>
        <mxCell id="_AvtWLBcrE-bu84miZi--10" style="edgeStyle=orthogonalEdgeStyle;rounded=0;orthogonalLoop=1;jettySize=auto;html=1;entryX=0;entryY=0.5;entryDx=0;entryDy=0;" edge="1" parent="1" source="_AvtWLBcrE-bu84miZi--7" target="qrLeTjBu-Ae9pymuF5rT-34">
          <mxGeometry relative="1" as="geometry" />
        </mxCell>
        <mxCell id="_AvtWLBcrE-bu84miZi--28" style="edgeStyle=orthogonalEdgeStyle;rounded=0;orthogonalLoop=1;jettySize=auto;html=1;entryX=0.467;entryY=0.006;entryDx=0;entryDy=0;exitX=0.541;exitY=0.961;exitDx=0;exitDy=0;exitPerimeter=0;entryPerimeter=0;" edge="1" parent="1" target="_AvtWLBcrE-bu84miZi--5">
          <mxGeometry relative="1" as="geometry">
            <mxPoint x="-93.97999999999988" y="129.99999999999983" as="sourcePoint" />
            <mxPoint x="-116.40999999999994" y="171.8" as="targetPoint" />
          </mxGeometry>
        </mxCell>
        <mxCell id="_AvtWLBcrE-bu84miZi--23" value="min_days : 최초 적용 박 수&lt;br&gt;min_days + days = 최초 이후 적용 박수" style="text;strokeColor=#666666;fillColor=#f5f5f5;html=1;fontSize=12;fontStyle=0;verticalAlign=top;align=left;fontColor=#333333;" vertex="1" parent="1">
          <mxGeometry x="-205" y="130" width="210" height="40" as="geometry" />
        </mxCell>
        <mxCell id="_AvtWLBcrE-bu84miZi--25" style="edgeStyle=orthogonalEdgeStyle;rounded=0;orthogonalLoop=1;jettySize=auto;html=1;" edge="1" parent="1" source="qrLeTjBu-Ae9pymuF5rT-31" target="qrLeTjBu-Ae9pymuF5rT-48">
          <mxGeometry relative="1" as="geometry" />
        </mxCell>
        <mxCell id="_AvtWLBcrE-bu84miZi--26" style="edgeStyle=orthogonalEdgeStyle;rounded=0;orthogonalLoop=1;jettySize=auto;html=1;entryX=0;entryY=0.5;entryDx=0;entryDy=0;" edge="1" parent="1" source="qrLeTjBu-Ae9pymuF5rT-50" target="qrLeTjBu-Ae9pymuF5rT-34">
          <mxGeometry relative="1" as="geometry">
            <Array as="points">
              <mxPoint x="50" y="55" />
              <mxPoint x="50" y="447" />
            </Array>
          </mxGeometry>
        </mxCell>
        <mxCell id="_AvtWLBcrE-bu84miZi--32" value="스케줄러&lt;br&gt;가능 기간" style="swimlane;fontStyle=0;childLayout=stackLayout;horizontal=1;startSize=30;horizontalStack=0;resizeParent=1;resizeParentMax=0;resizeLast=0;collapsible=1;marginBottom=0;whiteSpace=wrap;html=1;" vertex="1" parent="1">
          <mxGeometry x="-120" y="640" width="240" height="90" as="geometry" />
        </mxCell>
        <mxCell id="_AvtWLBcrE-bu84miZi--33" value="voucher_id" style="text;strokeColor=none;fillColor=none;align=left;verticalAlign=middle;spacingLeft=4;spacingRight=4;overflow=hidden;points=[[0,0.5],[1,0.5]];portConstraint=eastwest;rotatable=0;whiteSpace=wrap;html=1;" vertex="1" parent="_AvtWLBcrE-bu84miZi--32">
          <mxGeometry y="30" width="240" height="30" as="geometry" />
        </mxCell>
        <mxCell id="_AvtWLBcrE-bu84miZi--34" value="hotel_id" style="text;strokeColor=none;fillColor=none;align=left;verticalAlign=middle;spacingLeft=4;spacingRight=4;overflow=hidden;points=[[0,0.5],[1,0.5]];portConstraint=eastwest;rotatable=0;whiteSpace=wrap;html=1;" vertex="1" parent="_AvtWLBcrE-bu84miZi--32">
          <mxGeometry y="60" width="240" height="30" as="geometry" />
        </mxCell>
        <mxCell id="_AvtWLBcrE-bu84miZi--36" style="edgeStyle=orthogonalEdgeStyle;rounded=0;orthogonalLoop=1;jettySize=auto;html=1;" edge="1" parent="1" source="_AvtWLBcrE-bu84miZi--33" target="qrLeTjBu-Ae9pymuF5rT-34">
          <mxGeometry relative="1" as="geometry" />
        </mxCell>
        <mxCell id="_AvtWLBcrE-bu84miZi--37" style="edgeStyle=orthogonalEdgeStyle;rounded=0;orthogonalLoop=1;jettySize=auto;html=1;" edge="1" parent="1" source="_AvtWLBcrE-bu84miZi--34" target="qrLeTjBu-Ae9pymuF5rT-3">
          <mxGeometry relative="1" as="geometry" />
        </mxCell>
      </root>
    </mxGraphModel>
  </diagram>
</mxfile>
